<?xml version="1.0" standalone="no"?>
<!DOCTYPE svg PUBLIC "-//W3C//DTD SVG 20010904//EN"
 "http://www.w3.org/TR/2001/REC-SVG-20010904/DTD/svg10.dtd">
<svg version="1.0" xmlns="http://www.w3.org/2000/svg"
 width="582.000000pt" height="566.000000pt" viewBox="0 0 582.000000 566.000000"
 preserveAspectRatio="xMidYMid meet">

<g transform="translate(0.000000,566.000000) scale(0.100000,-0.100000)"
fill="#0d6efd" stroke="none">
<path d="M4582 5599 c-198 -24 -482 -167 -633 -318 -112 -113 -213 -282 -258
-434 -40 -133 -46 -172 -45 -322 1 -183 27 -294 104 -451 139 -285 381 -487
695 -579 123 -36 313 -45 435 -21 357 73 639 283 799 594 82 162 86 181 86
457 0 269 -5 305 -63 429 -126 268 -353 482 -617 582 -149 56 -354 82 -503 63z
m215 -307 c50 -65 128 -298 121 -363 -4 -44 -17 -47 -206 -48 -194 -1 -218 8
-206 84 10 63 82 258 117 316 18 30 43 59 56 66 35 17 78 -3 118 -55z m-447
-24 c0 -19 -91 -353 -100 -367 -5 -9 -44 -13 -128 -14 -102 -2 -124 1 -138 15
-15 15 -15 21 -3 49 15 38 189 223 269 286 53 42 100 56 100 31z m814 -25
c104 -63 248 -214 292 -306 10 -20 14 -40 10 -44 -4 -5 -65 -10 -136 -11 -117
-4 -130 -2 -148 16 -13 13 -33 75 -61 188 -22 93 -41 175 -41 182 0 20 19 14
84 -25z m-983 -583 l47 0 6 -77 c3 -43 7 -102 8 -132 l3 -54 -75 1 c-41 1
-123 5 -182 8 -124 8 -117 0 -121 126 -3 129 11 140 173 132 52 -2 116 -4 141
-4z m602 3 l167 -6 0 -123 0 -122 -167 -6 c-93 -4 -198 -8 -235 -9 l-68 -3 0
138 0 138 68 0 c38 0 144 -3 235 -7z m767 -128 l0 -135 -175 0 -175 0 0 135 0
135 175 0 175 0 0 -135z m-1286 -397 c25 -88 76 -306 76 -325 0 -13 -6 -23
-13 -23 -56 0 -357 286 -357 339 0 22 45 30 166 30 118 1 122 0 128 -21z m664
13 c32 -20 -115 -368 -182 -430 l-36 -35 -27 20 c-48 35 -131 210 -168 354
-16 63 -13 86 13 93 32 9 387 7 400 -2z m521 0 c12 -8 8 -20 -24 -68 -21 -32
-56 -79 -77 -105 -40 -48 -173 -155 -230 -184 l-31 -16 7 58 c6 56 30 160 62
272 l15 52 132 0 c73 0 138 -4 146 -9z"/>
<path d="M166 5370 c-27 -5 -55 -15 -63 -23 -9 -9 -16 -47 -20 -104 l-6 -91
314 -5 c173 -2 327 -9 344 -14 21 -7 31 -18 36 -39 29 -130 145 -692 284
-1379 301 -1487 323 -1585 405 -1751 85 -171 173 -251 410 -369 l115 -58 1490
-1 c1195 -1 1497 2 1526 12 45 16 64 55 56 114 -8 62 -23 71 -134 80 -54 5
-721 11 -1483 14 l-1385 6 -118 60 c-124 63 -252 167 -231 188 14 14 320 58
1558 225 1139 154 1785 245 1925 274 l84 17 18 53 c66 192 142 707 118 794 -8
30 -17 38 -54 53 -40 15 -49 15 -82 3 -48 -19 -53 -36 -109 -344 -61 -337 -60
-334 -99 -351 -78 -32 -937 -157 -2235 -323 -558 -72 -1067 -135 -1177 -145
l-61 -6 -32 133 c-73 306 -407 2015 -396 2028 1 1 467 5 1036 10 569 5 1059
12 1089 17 63 10 91 37 91 87 0 61 -24 77 -131 86 -86 8 -1411 28 -1930 29
l-215 0 -53 253 c-87 421 -94 436 -204 456 -78 15 -615 23 -681 11z"/>
<path d="M1935 1259 c-144 -32 -281 -132 -378 -276 -81 -121 -106 -303 -62
-456 44 -149 175 -306 317 -378 162 -82 331 -79 508 8 94 47 230 178 277 269
118 223 72 475 -122 670 -86 87 -161 133 -262 159 -62 16 -214 18 -278 4z
m253 -241 c105 -39 192 -132 227 -244 61 -193 -105 -429 -317 -451 -171 -17
-354 127 -388 307 -39 206 178 439 385 412 22 -2 64 -14 93 -24z"/>
<path d="M4355 1260 c-114 -24 -254 -107 -330 -193 -90 -103 -145 -246 -145
-377 0 -151 69 -316 175 -422 124 -125 278 -178 475 -164 160 11 263 59 368
171 219 233 211 609 -18 835 -72 71 -143 114 -224 136 -63 18 -246 26 -301 14z
m271 -249 c78 -37 129 -88 167 -170 27 -58 31 -76 31 -151 -1 -154 -68 -271
-191 -332 -60 -29 -77 -33 -148 -32 -149 1 -271 77 -337 212 -30 60 -33 76
-33 152 0 103 19 144 104 233 119 125 261 156 407 88z"/>
</g>
</svg>
