<?xml version="1.0" standalone="no"?>
<!DOCTYPE svg PUBLIC "-//W3C//DTD SVG 20010904//EN"
 "http://www.w3.org/TR/2001/REC-SVG-20010904/DTD/svg10.dtd">
<svg version="1.0" xmlns="http://www.w3.org/2000/svg"
 width="716.000000pt" height="166.000000pt" viewBox="0 0 716.000000 166.000000"
 preserveAspectRatio="xMidYMid meet">

<g transform="translate(0.000000,166.000000) scale(0.100000,-0.100000)"
fill="#0d6efd" stroke="none">
<path d="M76 1624 c-14 -14 -16 -89 -16 -678 0 -630 1 -664 18 -679 17 -16
105 -17 1065 -17 937 0 1047 2 1061 16 14 14 16 89 16 683 0 505 -3 670 -12
679 -9 9 -259 12 -1064 12 -944 0 -1054 -2 -1068 -16z m1942 -45 c68 -27 110
-61 132 -106 19 -41 20 -63 20 -525 0 -453 -2 -486 -19 -525 -25 -53 -87 -99
-155 -113 -35 -7 -314 -10 -881 -8 l-830 3 -58 28 c-44 22 -63 39 -85 75 l-27
47 -3 452 c-2 287 1 473 7 509 19 102 86 157 213 174 35 4 419 7 853 6 706 -1
795 -3 833 -17z"/>
<path d="M662 1431 c-8 -4 -12 -19 -10 -31 2 -18 26 -36 94 -74 l90 -51 80
-245 c73 -227 79 -253 84 -350 l5 -105 229 -3 c221 -2 256 2 256 29 0 4 -7 15
-16 23 -13 13 -46 16 -210 16 l-194 0 0 45 0 45 198 0 c143 0 203 3 215 13 22
16 159 385 152 409 -6 17 -25 18 -349 18 l-342 0 -25 78 -25 77 -100 57 c-105
60 -111 63 -132 49z m854 -423 c-19 -51 -44 -119 -56 -150 l-21 -58 -188 0
-187 0 -42 133 c-23 73 -44 141 -48 150 -6 16 16 17 285 17 l291 0 -34 -92z"/>
<path d="M1042 518 c-28 -28 -1 -75 38 -63 22 7 27 44 8 63 -15 15 -31 15 -46
0z"/>
<path d="M1340 515 c-26 -31 13 -82 44 -56 19 16 21 42 4 59 -16 16 -33 15
-48 -3z"/>
<path d="M2932 1412 c-11 -9 -58 -82 -103 -162 -45 -80 -85 -149 -89 -153 -4
-4 -42 54 -85 130 -106 188 -112 195 -144 191 l-26 -3 -3 -217 -2 -218 40 0
39 0 3 125 3 124 67 -118 c38 -65 74 -124 82 -131 29 -23 52 1 121 125 l70
125 3 -125 3 -125 39 0 40 0 0 215 c0 201 -1 215 -19 225 -15 7 -24 5 -39 -8z"/>
<path d="M3229 1406 c-60 -21 -100 -56 -125 -110 -21 -46 -24 -65 -24 -183 l0
-133 40 0 40 0 0 55 0 55 140 0 140 0 0 -55 0 -55 40 0 40 0 0 208 c0 148 -3
211 -12 220 -17 17 -232 15 -279 -2z m211 -156 l0 -90 -140 0 -140 0 0 35 c0
69 38 123 95 138 11 2 57 5 103 6 l82 1 0 -90z"/>
<path d="M3632 1408 c-9 -9 -12 -72 -12 -220 l0 -208 40 0 40 0 0 180 0 180
140 0 140 0 0 -49 c0 -42 -4 -53 -26 -70 -23 -18 -41 -21 -125 -21 l-99 0 0
-40 c0 -38 1 -40 31 -40 25 0 48 -15 110 -70 l78 -71 60 3 60 3 -75 64 -75 64
53 26 c64 31 88 72 88 149 0 63 -21 109 -56 122 -38 15 -357 13 -372 -2z"/>
<path d="M4140 1200 l0 -220 40 0 40 0 0 220 0 220 -40 0 -40 0 0 -220z"/>
<path d="M4405 1330 c-67 -68 -96 -90 -119 -92 -28 -3 -31 -7 -34 -40 -3 -36
-1 -38 25 -38 22 0 47 -19 118 -90 l90 -90 55 0 55 0 -108 108 -109 109 114
111 113 112 -55 0 -55 0 -90 -90z"/>
<path d="M4660 1401 c-6 -11 -10 -87 -10 -176 0 -241 4 -245 237 -245 l163 0
0 40 0 39 -157 3 -158 3 -3 138 -3 137 161 0 160 0 0 40 0 40 -190 0 c-177 0
-190 -1 -200 -19z"/>
<path d="M5100 1380 l0 -40 90 0 90 0 0 -180 0 -180 40 0 40 0 0 180 0 180 85
0 85 0 0 40 0 40 -215 0 -215 0 0 -40z"/>
<path d="M5590 1200 l0 -220 40 0 40 0 0 90 0 90 145 0 145 0 0 -90 0 -90 40
0 40 0 0 220 0 220 -40 0 -40 0 0 -90 0 -90 -145 0 -145 0 0 90 0 90 -40 0
-40 0 0 -220z"/>
<path d="M6120 1297 c0 -155 15 -211 69 -260 53 -48 98 -58 243 -55 l123 3 3
218 2 217 -35 0 -35 0 0 -180 0 -180 -97 0 c-168 0 -193 31 -193 235 l0 125
-40 0 -40 0 0 -123z"/>
<path d="M6672 1407 c-9 -11 -12 -71 -10 -218 l3 -204 191 -3 192 -2 26 31
c40 48 33 134 -16 186 -16 17 -18 25 -8 42 6 12 11 45 12 73 0 42 -5 55 -26
77 -26 26 -29 26 -189 29 -133 3 -166 1 -175 -11z m312 -82 c7 -18 -2 -44 -22
-67 -12 -15 -32 -18 -104 -18 l-88 0 0 -39 0 -39 111 -4 c122 -3 139 -12 139
-70 l0 -28 -140 0 -140 0 0 140 0 140 119 0 c96 0 120 -3 125 -15z"/>
<path d="M4770 1200 l0 -40 125 0 125 0 0 40 0 40 -125 0 -125 0 0 -40z"/>
<path d="M3268 850 c-134 -40 -197 -178 -170 -370 14 -99 45 -151 116 -195 48
-29 54 -30 184 -34 153 -4 198 8 263 66 57 51 74 107 74 238 0 67 -5 125 -14
148 -19 55 -68 106 -126 133 -44 21 -64 24 -175 23 -69 0 -137 -4 -152 -9z
m300 -120 c50 -31 64 -76 60 -191 -2 -80 -7 -103 -24 -126 -34 -46 -59 -53
-189 -53 -137 0 -169 12 -198 73 -22 45 -23 193 -3 242 26 61 63 75 201 75
103 0 125 -3 153 -20z"/>
<path d="M3868 849 c-17 -9 -18 -34 -18 -299 l0 -290 50 0 50 0 0 206 c0 113
3 204 8 202 4 -1 97 -96 206 -211 206 -214 224 -227 259 -189 15 16 17 52 17
300 l0 282 -55 0 -55 0 0 -207 0 -208 -67 70 c-281 292 -344 355 -360 355 -10
0 -26 -5 -35 -11z"/>
<path d="M4586 844 c-14 -13 -16 -55 -16 -300 l0 -284 50 0 50 0 0 205 c0 113
3 205 8 205 4 0 97 -95 206 -210 205 -217 224 -231 260 -194 14 13 16 55 16
300 l0 285 -52 -3 -53 -3 -5 -204 -5 -203 -50 53 c-27 30 -117 125 -200 212
-155 160 -176 175 -209 141z"/>
<path d="M2540 824 c-56 -48 -60 -65 -60 -271 0 -210 6 -233 72 -273 30 -18
51 -20 251 -20 l217 0 0 49 0 50 -205 3 c-151 2 -207 6 -217 16 -10 10 -13 56
-13 178 0 152 2 167 19 180 16 11 63 14 218 14 l198 0 0 50 0 50 -224 0 -224
0 -32 -26z"/>
<path d="M5302 838 c-9 -9 -12 -77 -12 -243 0 -342 -7 -335 322 -335 l218 0 0
50 0 50 -199 0 c-174 0 -201 2 -220 18 -21 16 -22 23 -19 192 l3 175 218 3
217 2 0 50 0 50 -258 0 c-187 0 -261 -3 -270 -12z"/>
<path d="M6005 840 c-27 -11 -61 -49 -74 -83 -6 -16 -11 -104 -11 -205 0 -199
7 -228 69 -269 33 -22 42 -23 252 -23 l219 0 0 50 0 50 -189 0 c-104 0 -201 4
-215 10 l-26 10 0 175 0 175 26 10 c14 6 111 10 215 10 l189 0 0 50 0 50 -217
-1 c-120 0 -227 -4 -238 -9z"/>
<path d="M6520 800 l0 -49 118 -3 117 -3 3 -242 2 -243 50 0 50 0 2 243 3 242
118 3 117 3 0 49 0 50 -290 0 -290 0 0 -50z"/>
<path d="M5440 555 l0 -55 170 0 170 0 0 55 0 55 -170 0 -170 0 0 -55z"/>
<path d="M927 188 c-8 -18 -23 -40 -33 -50 -22 -19 -93 -40 -107 -31 -16 9 4
-41 21 -54 12 -10 96 -13 339 -13 l322 0 16 30 c18 35 19 41 3 39 -52 -6 -122
39 -134 87 l-6 24 -204 0 -204 0 -13 -32z"/>
</g>
</svg>
