<?xml version="1.0" standalone="no"?>
<!DOCTYPE svg PUBLIC "-//W3C//DTD SVG 20010904//EN"
 "http://www.w3.org/TR/2001/REC-SVG-20010904/DTD/svg10.dtd">
<svg version="1.0" xmlns="http://www.w3.org/2000/svg"
 width="720.000000pt" height="256.000000pt" viewBox="0 0 720.000000 256.000000"
 preserveAspectRatio="xMidYMid meet">

<g transform="translate(0.000000,256.000000) scale(0.100000,-0.100000)"
fill="#0d6efd" stroke="none">
<path d="M187 2551 c-44 -9 -93 -52 -113 -98 -12 -27 -14 -199 -14 -990 0
-917 1 -960 19 -1000 13 -28 33 -49 63 -67 l45 -26 435 0 436 0 64 30 c34 16
73 30 85 30 22 0 21 2 -14 73 -20 39 -54 102 -75 140 l-39 67 -414 0 -415 0 2
813 3 812 545 0 545 0 5 -630 c5 -628 5 -630 27 -672 25 -46 38 -58 48 -43 3
5 28 12 55 16 l50 7 0 717 0 717 -23 33 c-12 19 -38 43 -57 54 -34 21 -49 21
-630 23 -327 0 -612 -2 -633 -6z m853 -79 c19 -16 21 -22 11 -40 -12 -22 -15
-22 -250 -22 -196 0 -241 3 -251 15 -15 18 -4 52 18 58 9 3 114 5 233 6 196 1
219 -1 239 -17z m-44 -1875 c31 -37 31 -81 -1 -112 -24 -25 -27 -25 -195 -25
-168 0 -171 0 -195 25 -41 40 -26 113 29 135 11 5 92 8 179 7 l159 -2 24 -28z"/>
<path d="M2932 1892 c-11 -9 -58 -82 -103 -162 -45 -80 -85 -149 -89 -153 -4
-4 -42 54 -85 130 -106 188 -112 195 -144 191 l-26 -3 -3 -217 -2 -218 40 0
39 0 3 125 3 124 67 -118 c38 -65 74 -124 82 -131 29 -23 52 1 121 125 l70
125 3 -125 3 -125 39 0 40 0 0 215 c0 201 -1 215 -19 225 -15 7 -24 5 -39 -8z"/>
<path d="M3229 1886 c-60 -21 -100 -56 -125 -110 -21 -46 -24 -65 -24 -183 l0
-133 40 0 40 0 0 55 0 55 140 0 140 0 0 -55 0 -55 40 0 40 0 0 208 c0 148 -3
211 -12 220 -17 17 -232 15 -279 -2z m211 -156 l0 -90 -140 0 -140 0 0 35 c0
69 38 123 95 138 11 2 57 5 103 6 l82 1 0 -90z"/>
<path d="M3632 1888 c-9 -9 -12 -72 -12 -220 l0 -208 40 0 40 0 0 180 0 180
140 0 140 0 0 -49 c0 -42 -4 -53 -26 -70 -23 -18 -41 -21 -125 -21 l-99 0 0
-40 c0 -38 2 -40 30 -40 22 0 49 -17 109 -70 l80 -71 60 3 59 3 -75 64 -75 64
54 26 c64 31 88 72 88 149 0 63 -21 109 -56 122 -38 15 -357 13 -372 -2z"/>
<path d="M4140 1680 l0 -220 40 0 40 0 0 220 0 220 -40 0 -40 0 0 -220z"/>
<path d="M4405 1810 c-67 -68 -96 -90 -119 -92 -28 -3 -31 -7 -34 -40 -3 -36
-1 -38 25 -38 22 0 47 -19 118 -90 l90 -90 55 0 55 0 -108 108 -109 109 114
111 113 112 -55 0 -55 0 -90 -90z"/>
<path d="M4660 1881 c-6 -11 -10 -87 -10 -176 0 -241 4 -245 237 -245 l163 0
0 40 0 39 -157 3 -158 3 -3 138 -3 137 161 0 160 0 0 40 0 40 -190 0 c-177 0
-190 -1 -200 -19z"/>
<path d="M5100 1860 l0 -40 90 0 90 0 0 -180 0 -180 40 0 40 0 0 180 0 180 85
0 85 0 0 40 0 40 -215 0 -215 0 0 -40z"/>
<path d="M5590 1680 l0 -220 40 0 40 0 0 90 0 90 145 0 145 0 0 -90 0 -90 40
0 40 0 0 220 0 220 -40 0 -40 0 0 -90 0 -90 -145 0 -145 0 0 90 0 90 -40 0
-40 0 0 -220z"/>
<path d="M6120 1777 c0 -155 15 -211 69 -260 53 -48 98 -58 243 -55 l123 3 3
218 2 217 -35 0 -35 0 0 -180 0 -180 -97 0 c-168 0 -193 31 -193 235 l0 125
-40 0 -40 0 0 -123z"/>
<path d="M6672 1887 c-9 -11 -12 -71 -10 -218 l3 -204 191 -3 192 -2 26 31
c40 48 33 134 -16 186 -16 17 -18 25 -8 42 6 12 11 45 12 73 0 42 -5 55 -26
77 -26 26 -29 26 -189 29 -133 3 -166 1 -175 -11z m312 -82 c7 -18 -2 -44 -22
-67 -12 -15 -32 -18 -104 -18 l-88 0 0 -39 0 -39 111 -4 c122 -3 139 -12 139
-70 l0 -28 -140 0 -140 0 0 140 0 140 119 0 c96 0 120 -3 125 -15z"/>
<path d="M1096 1826 c-71 -19 -81 -24 -94 -54 -9 -18 -25 -34 -36 -37 -12 -2
-140 -16 -286 -30 -145 -15 -268 -29 -272 -31 -14 -9 -8 -46 25 -154 l33 -105
124 -5 124 -5 -74 -24 c-125 -40 -157 -57 -185 -99 -27 -41 -26 -66 5 -82 12
-6 24 -4 39 7 19 12 22 21 17 48 -7 37 -17 32 128 81 55 19 111 34 124 34 31
0 130 -93 134 -127 7 -56 70 -55 76 1 2 18 -2 28 -15 33 -10 3 -50 37 -89 75
l-72 68 42 0 42 0 72 148 c40 81 72 153 72 160 0 7 11 24 25 37 19 20 35 25
72 25 56 0 76 10 71 35 -4 26 -13 26 -102 1z"/>
<path d="M4770 1680 l0 -40 125 0 125 0 0 40 0 40 -125 0 -125 0 0 -40z"/>
<path d="M3268 1330 c-134 -40 -197 -178 -170 -370 14 -99 45 -151 116 -195
48 -29 54 -30 184 -34 153 -4 198 8 263 66 57 51 74 107 74 238 0 67 -5 125
-14 148 -19 55 -68 106 -126 133 -44 21 -64 24 -175 23 -69 0 -137 -4 -152 -9z
m300 -120 c50 -31 64 -76 60 -191 -2 -80 -7 -103 -24 -126 -34 -46 -59 -53
-189 -53 -137 0 -169 12 -198 73 -22 45 -23 193 -3 242 26 61 63 75 201 75
103 0 125 -3 153 -20z"/>
<path d="M3868 1329 c-17 -9 -18 -34 -18 -299 l0 -290 50 0 50 0 0 206 c0 113
3 204 8 202 4 -1 97 -96 206 -210 206 -215 224 -228 259 -190 15 16 17 52 17
300 l0 282 -55 0 -55 0 0 -207 0 -208 -63 65 c-299 312 -347 360 -364 360 -10
0 -26 -5 -35 -11z"/>
<path d="M4586 1324 c-14 -13 -16 -55 -16 -300 l0 -284 50 0 50 0 0 206 c0
115 4 204 9 202 5 -1 98 -96 207 -210 280 -294 274 -297 274 108 l0 285 -52
-3 -53 -3 -5 -204 -5 -203 -50 53 c-27 30 -117 125 -200 212 -155 160 -176
175 -209 141z"/>
<path d="M2540 1304 c-56 -48 -60 -65 -60 -271 0 -210 6 -233 72 -273 30 -18
51 -20 251 -20 l217 0 0 49 0 50 -205 3 c-151 2 -207 6 -217 16 -10 10 -13 56
-13 178 0 152 2 167 19 180 16 11 63 14 218 14 l198 0 0 50 0 50 -224 0 -224
0 -32 -26z"/>
<path d="M5302 1318 c-9 -9 -12 -77 -12 -243 0 -342 -7 -335 322 -335 l218 0
0 50 0 50 -199 0 c-174 0 -201 2 -220 18 -21 16 -22 23 -19 192 l3 175 218 3
217 2 0 50 0 50 -258 0 c-187 0 -261 -3 -270 -12z"/>
<path d="M6005 1320 c-27 -11 -61 -49 -74 -83 -6 -16 -11 -104 -11 -205 0
-199 7 -228 69 -269 33 -22 42 -23 252 -23 l219 0 0 50 0 50 -189 0 c-104 0
-201 4 -215 10 l-26 10 0 175 0 175 26 10 c14 6 111 10 215 10 l189 0 0 50 0
50 -217 -1 c-120 0 -227 -4 -238 -9z"/>
<path d="M6520 1280 l0 -49 118 -3 117 -3 3 -242 2 -243 50 0 50 0 2 243 3
242 118 3 117 3 0 49 0 50 -290 0 -290 0 0 -50z"/>
<path d="M1057 1160 c-15 -12 -29 -36 -33 -55 -6 -31 6 -56 120 -253 69 -121
133 -236 142 -258 9 -21 38 -73 65 -115 27 -42 49 -85 49 -96 0 -37 -31 -53
-106 -53 -92 0 -132 -13 -183 -57 -46 -39 -71 -85 -71 -131 0 -55 36 -65 117
-33 86 34 147 36 259 8 92 -23 108 -24 182 -14 62 8 93 8 129 -2 99 -26 89
-28 258 69 226 129 235 136 235 165 0 49 -72 264 -125 370 -56 115 -115 191
-193 250 -51 40 -79 43 -115 15 -18 -15 -40 -20 -82 -20 -49 0 -62 -4 -91 -30
-30 -26 -39 -29 -82 -23 -48 5 -50 4 -78 -33 -37 -50 -44 -55 -65 -44 -9 5
-54 76 -100 157 -46 81 -96 160 -110 176 -34 33 -84 36 -122 7z"/>
<path d="M5440 1035 l0 -55 170 0 170 0 0 55 0 55 -170 0 -170 0 0 -55z"/>
</g>
</svg>
