<?xml version="1.0" standalone="no"?>
<!DOCTYPE svg PUBLIC "-//W3C//DTD SVG 20010904//EN"
 "http://www.w3.org/TR/2001/REC-SVG-20010904/DTD/svg10.dtd">
<svg version="1.0" xmlns="http://www.w3.org/2000/svg"
 width="708.000000pt" height="212.000000pt" viewBox="0 0 708.000000 212.000000"
 preserveAspectRatio="xMidYMid meet">

<g transform="translate(0.000000,212.000000) scale(0.100000,-0.100000)"
fill="#0d6efd" stroke="none">
<path d="M1671 2089 c-74 -13 -184 -72 -231 -127 -147 -166 -141 -403 14 -558
92 -91 225 -136 341 -115 138 26 252 111 309 231 29 60 31 73 31 170 0 93 -3
112 -27 162 -78 168 -260 266 -437 237z m100 -119 c19 -26 50 -130 42 -142 -2
-5 -38 -8 -79 -8 -85 0 -86 1 -57 86 32 96 58 114 94 64z m-171 -7 c-1 -5 -9
-37 -19 -73 l-18 -65 -51 -3 c-70 -4 -69 13 7 89 54 54 82 71 81 52z m323 -19
c36 -24 97 -97 97 -116 0 -4 -25 -8 -55 -8 -51 0 -55 2 -61 28 -3 15 -12 48
-19 75 -7 26 -10 47 -6 47 3 0 23 -12 44 -26z m-365 -257 l3 -48 -68 3 -68 3
-3 33 c-6 58 1 63 70 60 l63 -3 3 -48z m267 3 l0 -45 -87 -3 -88 -3 0 51 0 51
88 -3 87 -3 0 -45z m225 0 l0 -50 -65 0 -65 0 0 50 0 50 65 0 65 0 0 -50z
m-467 -207 c9 -36 15 -68 13 -70 -13 -13 -136 102 -136 127 0 5 23 10 53 10
l52 0 18 -67z m237 62 c0 -23 -46 -134 -63 -152 -19 -21 -22 -22 -38 -7 -17
15 -59 123 -59 151 0 10 21 13 80 13 44 0 80 -2 80 -5z m194 -7 c-24 -43 -52
-73 -87 -99 -22 -16 -43 -29 -47 -29 -3 0 2 30 11 68 10 37 18 68 18 70 1 1
26 2 57 2 41 0 53 -3 48 -12z"/>
<path d="M18 2003 c-13 -3 -18 -15 -18 -44 l0 -39 124 0 c70 0 127 -4 131 -10
3 -5 55 -258 116 -562 89 -450 116 -565 140 -615 34 -70 70 -105 149 -142 l55
-26 563 -3 c418 -2 568 0 578 9 17 14 18 51 2 67 -9 9 -148 12 -562 12 l-551
0 -50 24 c-48 22 -93 61 -84 71 3 2 301 44 663 92 362 48 664 92 672 97 21 16
68 300 54 326 -12 22 -52 27 -68 8 -5 -7 -18 -62 -27 -123 -10 -60 -21 -117
-26 -125 -6 -11 -158 -35 -656 -101 -356 -47 -651 -83 -655 -80 -9 9 -166 800
-160 806 3 3 185 5 405 5 290 -1 403 2 413 11 18 15 18 43 1 58 -10 7 -142 12
-428 13 l-414 3 -26 125 c-22 110 -28 126 -50 137 -23 12 -251 17 -291 6z"/>
<path d="M2852 1632 c-11 -9 -58 -82 -103 -162 -45 -80 -85 -149 -89 -153 -4
-4 -42 54 -85 130 -106 188 -112 195 -144 191 l-26 -3 -3 -217 -2 -218 40 0
39 0 3 125 3 124 67 -118 c38 -65 74 -124 82 -131 29 -23 52 1 121 125 l70
125 3 -125 3 -125 39 0 40 0 0 215 c0 201 -1 215 -19 225 -15 7 -24 5 -39 -8z"/>
<path d="M3149 1626 c-60 -21 -100 -56 -125 -110 -21 -46 -24 -65 -24 -183 l0
-133 40 0 40 0 0 55 0 55 140 0 140 0 0 -55 0 -55 40 0 40 0 0 208 c0 148 -3
211 -12 220 -17 17 -232 15 -279 -2z m211 -156 l0 -90 -140 0 -140 0 0 35 c0
69 38 123 95 138 11 2 57 5 103 6 l82 1 0 -90z"/>
<path d="M3552 1628 c-9 -9 -12 -72 -12 -220 l0 -208 40 0 40 0 0 180 0 180
140 0 140 0 0 -49 c0 -42 -4 -53 -26 -70 -23 -18 -41 -21 -125 -21 l-99 0 0
-40 c0 -38 1 -40 31 -40 25 0 48 -15 110 -70 l78 -71 60 3 60 3 -75 64 -75 64
53 26 c64 31 88 72 88 149 0 63 -21 109 -56 122 -38 15 -357 13 -372 -2z"/>
<path d="M4060 1420 l0 -220 40 0 40 0 0 220 0 220 -40 0 -40 0 0 -220z"/>
<path d="M4325 1550 c-67 -68 -96 -90 -119 -92 -28 -3 -31 -7 -34 -40 -3 -36
-1 -38 25 -38 22 0 47 -19 118 -90 l90 -90 55 0 55 0 -108 108 -109 109 114
111 113 112 -55 0 -55 0 -90 -90z"/>
<path d="M4580 1621 c-6 -11 -10 -87 -10 -176 0 -241 4 -245 237 -245 l163 0
0 40 0 39 -157 3 -158 3 -3 138 -3 137 161 0 160 0 0 40 0 40 -190 0 c-177 0
-190 -1 -200 -19z"/>
<path d="M5020 1600 l0 -40 90 0 90 0 0 -180 0 -180 40 0 40 0 0 180 0 180 85
0 85 0 0 40 0 40 -215 0 -215 0 0 -40z"/>
<path d="M5510 1420 l0 -220 40 0 40 0 0 90 0 90 145 0 145 0 0 -90 0 -90 40
0 40 0 0 220 0 220 -40 0 -40 0 0 -90 0 -90 -145 0 -145 0 0 90 0 90 -40 0
-40 0 0 -220z"/>
<path d="M6040 1517 c0 -155 15 -211 69 -260 53 -48 98 -58 243 -55 l123 3 3
218 2 217 -35 0 -35 0 0 -180 0 -180 -97 0 c-168 0 -193 31 -193 235 l0 125
-40 0 -40 0 0 -123z"/>
<path d="M6592 1627 c-9 -11 -12 -71 -10 -218 l3 -204 191 -3 192 -2 26 31
c40 48 33 134 -16 186 -16 17 -18 25 -8 42 6 12 11 45 12 73 0 42 -5 55 -26
77 -26 26 -29 26 -189 29 -133 3 -166 1 -175 -11z m312 -82 c7 -18 -2 -44 -22
-67 -12 -15 -32 -18 -104 -18 l-88 0 0 -39 0 -39 111 -4 c122 -3 139 -12 139
-70 l0 -28 -140 0 -140 0 0 140 0 140 119 0 c96 0 120 -3 125 -15z"/>
<path d="M4690 1420 l0 -40 125 0 125 0 0 40 0 40 -125 0 -125 0 0 -40z"/>
<path d="M3188 1070 c-134 -40 -197 -178 -170 -370 14 -99 45 -151 116 -195
48 -29 54 -30 184 -34 153 -4 198 8 263 66 57 51 74 107 74 238 0 67 -5 125
-14 148 -19 55 -68 106 -126 133 -44 21 -64 24 -175 23 -69 0 -137 -4 -152 -9z
m300 -120 c50 -31 64 -76 60 -191 -2 -80 -7 -103 -24 -126 -34 -46 -59 -53
-189 -53 -137 0 -169 12 -198 73 -22 45 -23 193 -3 242 26 61 63 75 201 75
103 0 125 -3 153 -20z"/>
<path d="M3788 1069 c-17 -9 -18 -34 -18 -299 l0 -290 50 0 50 0 0 206 c0 113
3 204 8 202 4 -1 97 -96 206 -210 206 -215 224 -228 259 -190 15 16 17 52 17
300 l0 282 -55 0 -55 0 0 -207 0 -208 -67 70 c-281 292 -344 355 -360 355 -10
0 -26 -5 -35 -11z"/>
<path d="M4506 1064 c-14 -13 -16 -55 -16 -300 l0 -284 50 0 50 0 0 205 c0
113 3 205 8 205 4 0 97 -95 206 -210 205 -217 224 -231 260 -194 14 13 16 55
16 300 l0 285 -52 -3 -53 -3 -5 -204 -5 -203 -50 53 c-27 30 -117 125 -200
212 -155 160 -176 175 -209 141z"/>
<path d="M2460 1044 c-56 -48 -60 -65 -60 -271 0 -210 6 -233 72 -273 30 -18
51 -20 251 -20 l217 0 0 49 0 50 -205 3 c-151 2 -207 6 -217 16 -10 10 -13 56
-13 178 0 152 2 167 19 180 16 11 63 14 218 14 l198 0 0 50 0 50 -224 0 -224
0 -32 -26z"/>
<path d="M5222 1058 c-9 -9 -12 -77 -12 -243 0 -342 -7 -335 322 -335 l218 0
0 50 0 50 -199 0 c-174 0 -201 2 -220 18 -21 16 -22 23 -19 192 l3 175 218 3
217 2 0 50 0 50 -258 0 c-187 0 -261 -3 -270 -12z"/>
<path d="M5925 1060 c-27 -11 -61 -49 -74 -83 -6 -16 -11 -104 -11 -205 0
-199 7 -228 69 -269 33 -22 42 -23 252 -23 l219 0 0 50 0 50 -189 0 c-104 0
-201 4 -215 10 l-26 10 0 175 0 175 26 10 c14 6 111 10 215 10 l189 0 0 50 0
50 -217 -1 c-120 0 -227 -4 -238 -9z"/>
<path d="M6440 1020 l0 -49 118 -3 117 -3 3 -242 2 -243 50 0 50 0 2 243 3
242 118 3 117 3 0 49 0 50 -290 0 -290 0 0 -50z"/>
<path d="M5360 775 l0 -55 170 0 170 0 0 55 0 55 -170 0 -170 0 0 -55z"/>
<path d="M663 454 c-52 -19 -118 -89 -132 -140 -23 -84 -8 -152 49 -217 88
-100 225 -102 322 -6 89 88 91 207 6 304 -61 69 -153 91 -245 59z m146 -92
c40 -21 71 -73 71 -117 0 -17 -8 -46 -18 -64 -21 -40 -73 -71 -117 -71 -69 0
-135 66 -135 135 0 69 66 135 135 135 17 0 46 -8 64 -18z"/>
<path d="M1576 456 c-134 -50 -190 -190 -126 -316 21 -41 52 -71 100 -96 47
-25 153 -25 199 0 160 86 159 319 -2 403 -43 22 -125 26 -171 9z m135 -91 c92
-48 90 -193 -2 -241 -73 -37 -166 5 -191 87 -13 46 -6 78 29 119 43 51 106 65
164 35z"/>
</g>
</svg>
