<?xml version="1.0" standalone="no"?>
<!DOCTYPE svg PUBLIC "-//W3C//DTD SVG 20010904//EN"
 "http://www.w3.org/TR/2001/REC-SVG-20010904/DTD/svg10.dtd">
<svg version="1.0" xmlns="http://www.w3.org/2000/svg"
 width="980.000000pt" height="480.000000pt" viewBox="0 0 980.000000 480.000000"
 preserveAspectRatio="xMidYMid meet">

<g transform="translate(0.000000,480.000000) scale(0.100000,-0.100000)"
fill="#000000" stroke="none">
<path d="M1350 3593 c-37 -14 -74 -49 -91 -87 -18 -39 -19 -85 -19 -963 0
-1036 -4 -978 73 -1034 l40 -29 436 0 c360 0 440 2 457 14 11 8 45 22 76 30
l56 17 -65 122 c-36 67 -70 128 -75 135 -8 9 -102 12 -409 12 l-399 0 0 790 0
790 530 0 530 0 0 -606 0 -606 27 -50 c25 -43 31 -48 53 -43 14 3 42 8 63 12
l37 6 0 696 c0 672 -1 697 -20 725 -10 17 -36 40 -57 53 l-38 23 -595 -1
c-327 0 -602 -3 -610 -6z m850 -78 c6 -8 9 -23 5 -35 -6 -20 -12 -20 -248 -18
-224 3 -242 4 -245 21 -9 44 7 47 248 47 187 0 230 -3 240 -15z m-49 -1814
c29 -36 25 -94 -7 -120 -24 -19 -40 -21 -186 -21 -155 0 -159 1 -183 25 -44
43 -26 114 35 138 8 3 84 5 168 4 148 -2 154 -3 173 -26z"/>
<path d="M3602 2958 c-9 -9 -12 -72 -12 -221 l0 -208 38 3 37 3 5 122 5 123
66 -117 c36 -64 73 -122 82 -127 28 -18 47 3 116 127 l66 116 5 -122 5 -122
38 -3 37 -3 0 209 c0 220 -4 239 -46 230 -9 -2 -56 -72 -107 -160 -50 -87 -94
-158 -98 -158 -4 0 -44 66 -89 146 -102 179 -116 194 -148 162z"/>
<path d="M4307 2946 c-49 -18 -83 -50 -110 -101 -17 -34 -20 -59 -21 -175 l-1
-135 38 -3 37 -3 0 55 0 56 140 0 140 0 0 -55 0 -55 35 0 35 0 -2 213 -3 212
-125 2 c-86 2 -137 -2 -163 -11z m218 -146 l0 -85 -133 -3 c-147 -3 -150 -2
-138 63 9 44 44 86 87 101 19 7 68 12 109 11 l75 -2 0 -85z"/>
<path d="M4707 2953 c-4 -3 -7 -100 -7 -215 l0 -208 35 0 35 0 2 178 3 177
135 0 135 0 3 -46 c3 -41 -1 -50 -24 -68 -23 -18 -40 -21 -120 -21 l-94 0 0
-40 c0 -37 2 -40 28 -40 19 0 51 -20 109 -71 l82 -70 57 3 57 3 -77 64 -77 65
48 22 c27 13 56 36 64 51 38 65 31 176 -14 208 -17 12 -55 15 -198 15 -96 0
-179 -3 -182 -7z"/>
<path d="M5210 2745 l0 -215 35 0 35 0 0 215 0 215 -35 0 -35 0 0 -215z"/>
<path d="M5460 2875 c-66 -66 -91 -85 -112 -85 -26 0 -28 -3 -28 -40 0 -35 3
-40 23 -40 15 0 52 -29 112 -90 l90 -90 55 0 55 0 -110 111 -110 111 110 104
110 104 -55 0 -55 0 -85 -85z"/>
<path d="M5712 2948 c-8 -8 -12 -61 -12 -170 0 -240 7 -248 245 -248 l145 0 0
40 0 39 -152 3 -153 3 -3 138 -3 137 156 0 155 0 0 35 0 35 -183 0 c-129 0
-187 -4 -195 -12z"/>
<path d="M6130 2925 l0 -34 88 -3 87 -3 3 -177 2 -178 35 0 35 0 2 178 3 177
88 3 87 3 0 34 0 35 -215 0 -215 0 0 -35z"/>
<path d="M6620 2745 l0 -215 35 0 35 0 0 90 0 90 140 0 140 0 0 -90 0 -90 35
0 35 0 0 215 0 215 -35 0 -35 0 0 -85 0 -85 -140 0 -140 0 0 85 0 85 -35 0
-35 0 0 -215z"/>
<path d="M7130 2830 c0 -174 21 -223 115 -273 56 -30 272 -38 298 -12 15 14
17 43 17 216 l0 199 -40 0 -40 0 0 -175 0 -175 -82 0 c-93 0 -138 16 -171 62
-17 23 -21 48 -25 158 l-5 130 -33 0 -34 0 0 -130z"/>
<path d="M7656 2944 c-12 -31 -7 -389 6 -402 18 -18 318 -16 362 2 63 26 74
133 20 192 -22 23 -24 31 -15 51 12 26 15 102 5 128 -14 36 -57 45 -217 45
-132 0 -156 -2 -161 -16z m303 -68 c16 -18 4 -64 -19 -76 -10 -6 -55 -10 -99
-10 l-81 0 0 -39 0 -39 106 -4 c116 -3 134 -13 134 -70 l0 -28 -135 0 -135 0
0 140 0 140 109 0 c81 0 112 -4 120 -14z"/>
<path d="M2280 2899 c-14 -5 -44 -14 -68 -19 -34 -9 -46 -18 -58 -44 l-16 -33
-277 -27 c-152 -15 -280 -32 -286 -37 -10 -10 48 -224 67 -247 8 -10 39 -11
127 -7 l116 5 -110 -39 c-86 -31 -116 -46 -138 -73 -35 -42 -35 -91 1 -96 36
-5 55 16 48 54 -5 25 -3 33 11 39 52 21 219 75 232 75 23 0 133 -100 127 -115
-7 -19 22 -55 44 -55 11 0 24 9 30 20 12 22 5 60 -11 60 -5 0 -41 29 -79 65
-64 60 -67 65 -42 65 15 0 32 4 38 8 14 9 136 252 153 304 15 47 21 50 95 57
52 5 61 9 61 26 0 23 -26 28 -65 14z"/>
<path d="M5810 2750 l0 -40 126 0 125 0 -3 38 -3 37 -122 3 -123 3 0 -41z"/>
<path d="M4352 2406 c-59 -19 -108 -59 -134 -109 -31 -59 -39 -246 -13 -313
24 -63 61 -103 120 -130 44 -21 65 -24 170 -24 151 0 184 9 245 68 59 58 70
93 70 232 -1 147 -32 214 -125 263 -33 17 -61 21 -165 24 -87 2 -138 -1 -168
-11z m293 -110 c50 -33 65 -72 65 -171 0 -160 -38 -195 -211 -195 -94 0 -110
3 -140 23 -51 34 -69 78 -69 170 0 115 30 169 102 188 57 14 223 4 253 -15z"/>
<path d="M4936 2404 c-14 -13 -16 -54 -16 -290 l0 -274 50 0 50 0 2 200 3 201
189 -198 c105 -109 200 -202 213 -208 16 -6 30 -6 41 1 15 10 17 41 20 293 l2
281 -50 0 -50 0 0 -202 0 -203 -67 70 c-351 366 -351 366 -387 329z"/>
<path d="M5636 2404 c-14 -13 -16 -54 -16 -290 l0 -274 50 0 50 0 0 203 0 202
77 -80 c307 -319 326 -336 352 -333 47 5 51 31 51 316 l0 262 -55 0 -55 0 0
-202 0 -203 -62 65 c-351 367 -355 371 -392 334z"/>
<path d="M3659 2387 c-61 -41 -69 -70 -69 -265 0 -195 8 -227 65 -262 30 -18
49 -20 244 -20 l211 0 0 50 0 50 -200 0 c-187 0 -200 1 -210 19 -5 11 -10 85
-10 170 0 123 3 152 16 165 13 13 46 16 210 16 l194 0 0 50 0 50 -209 0 c-200
0 -209 -1 -242 -23z"/>
<path d="M6332 2398 c-9 -9 -12 -75 -12 -235 0 -248 4 -267 63 -303 29 -18 51
-20 245 -20 l212 0 0 50 0 50 -198 0 c-141 0 -201 3 -210 12 -8 8 -12 64 -12
185 l0 173 210 0 210 0 0 50 0 50 -248 0 c-180 0 -251 -3 -260 -12z"/>
<path d="M7003 2390 c-63 -38 -68 -55 -71 -252 -3 -165 -2 -182 18 -222 34
-71 53 -76 299 -76 l211 0 0 50 0 50 -207 2 -208 3 -3 174 c-2 133 1 176 10
183 7 4 102 8 211 8 l197 0 0 50 0 50 -212 0 c-193 0 -216 -2 -245 -20z"/>
<path d="M7510 2360 l0 -50 115 0 115 0 0 -235 0 -235 55 0 55 0 0 235 0 235
115 0 115 0 0 50 0 50 -285 0 -285 0 0 -50z"/>
<path d="M2240 2263 c-8 -3 -25 -15 -37 -26 -43 -39 -32 -74 81 -271 57 -100
116 -206 131 -236 15 -30 49 -92 76 -136 75 -125 65 -154 -53 -154 -87 0 -128
-14 -182 -61 -67 -59 -85 -143 -36 -169 15 -8 37 -4 91 15 91 31 165 32 264 3
68 -20 82 -21 153 -11 53 8 91 8 122 1 114 -25 101 -28 295 84 98 58 183 112
189 121 11 18 1 69 -46 212 -59 182 -147 326 -246 402 -60 45 -87 51 -122 24
-22 -16 -44 -21 -88 -21 -49 0 -62 -4 -82 -25 -19 -20 -33 -25 -74 -25 -48 0
-53 -3 -88 -42 -31 -36 -40 -41 -55 -32 -10 6 -58 81 -107 167 -72 125 -96
160 -122 172 -34 16 -40 17 -64 8z"/>
<path d="M6467 2173 c-4 -3 -7 -28 -7 -55 l0 -48 165 0 165 0 0 55 0 55 -158
0 c-87 0 -162 -3 -165 -7z"/>
</g>
</svg>
